<mxfile host="app.diagrams.net" modified="2022-11-17T07:06:09.527Z" agent="5.0 (Windows NT 10.0; Win64; x64) AppleWebKit/537.36 (KHTML, like Gecko) Chrome/107.0.0.0 Safari/537.36" etag="pITidBhs2Lw2rFwc7vZn" version="20.5.3" type="github">
  <diagram id="HZNUl2CzpaWqqnHRsT74" name="第 1 页">
    <mxGraphModel dx="782" dy="436" grid="1" gridSize="10" guides="1" tooltips="1" connect="1" arrows="1" fold="1" page="1" pageScale="1" pageWidth="827" pageHeight="1169" math="0" shadow="0">
      <root>
        <mxCell id="0" />
        <mxCell id="1" parent="0" />
        <mxCell id="G8l555mlQAZDzIwb1ybo-1" value="行为型模式概述：关注系统中对象之间的交互，研究系统在运行时对象之间的通信和协作，进一步明确对象的职责&lt;br&gt;&lt;br&gt;" style="text;html=1;strokeColor=none;fillColor=none;align=center;verticalAlign=middle;whiteSpace=wrap;rounded=0;" vertex="1" parent="1">
          <mxGeometry x="40" y="10" width="330" height="110" as="geometry" />
        </mxCell>
        <mxCell id="G8l555mlQAZDzIwb1ybo-2" value="命令模式：&lt;br&gt;类似于生活中开关通过电线控制电灯。&lt;br&gt;命令模式的动机在于将请求发送者和请求接收者完全解耦，&lt;br&gt;发送者和接收者之前没有直接引用关系，发送者请求的对象只需要知道如何发送请求，而不必知道如何完成请求。&lt;br&gt;命令模式的定义：&lt;br&gt;将一个请求封装为一个对象，从而可以用不同的请求对客户进行参数化，对请求排队或记录请求日志，以及支持可撤销的操作&lt;br&gt;别名：动作模式或食物模式&lt;br&gt;" style="text;html=1;strokeColor=none;fillColor=none;align=center;verticalAlign=middle;whiteSpace=wrap;rounded=0;" vertex="1" parent="1">
          <mxGeometry x="50" y="120" width="320" height="100" as="geometry" />
        </mxCell>
        <mxCell id="G8l555mlQAZDzIwb1ybo-21" style="edgeStyle=orthogonalEdgeStyle;rounded=0;orthogonalLoop=1;jettySize=auto;html=1;entryX=0;entryY=0.25;entryDx=0;entryDy=0;" edge="1" parent="1" source="G8l555mlQAZDzIwb1ybo-3" target="G8l555mlQAZDzIwb1ybo-4">
          <mxGeometry relative="1" as="geometry">
            <Array as="points">
              <mxPoint x="150" y="279" />
            </Array>
          </mxGeometry>
        </mxCell>
        <mxCell id="G8l555mlQAZDzIwb1ybo-27" style="edgeStyle=orthogonalEdgeStyle;rounded=0;orthogonalLoop=1;jettySize=auto;html=1;entryX=0.225;entryY=1.154;entryDx=0;entryDy=0;entryPerimeter=0;endArrow=openThin;endFill=0;" edge="1" parent="1">
          <mxGeometry relative="1" as="geometry">
            <mxPoint x="144" y="420" as="sourcePoint" />
            <mxPoint x="605" y="530.004" as="targetPoint" />
            <Array as="points">
              <mxPoint x="144" y="560" />
              <mxPoint x="605" y="560" />
            </Array>
          </mxGeometry>
        </mxCell>
        <mxCell id="G8l555mlQAZDzIwb1ybo-3" value="client" style="html=1;" vertex="1" parent="1">
          <mxGeometry x="80" y="370" width="110" height="50" as="geometry" />
        </mxCell>
        <mxCell id="G8l555mlQAZDzIwb1ybo-30" style="edgeStyle=orthogonalEdgeStyle;rounded=0;orthogonalLoop=1;jettySize=auto;html=1;entryX=0;entryY=0.25;entryDx=0;entryDy=0;endArrow=openThin;endFill=0;startArrow=diamondThin;startFill=0;" edge="1" parent="1" source="G8l555mlQAZDzIwb1ybo-4" target="G8l555mlQAZDzIwb1ybo-8">
          <mxGeometry relative="1" as="geometry" />
        </mxCell>
        <mxCell id="G8l555mlQAZDzIwb1ybo-4" value="Invoker" style="swimlane;fontStyle=1;align=center;verticalAlign=top;childLayout=stackLayout;horizontal=1;startSize=26;horizontalStack=0;resizeParent=1;resizeParentMax=0;resizeLast=0;collapsible=1;marginBottom=0;" vertex="1" parent="1">
          <mxGeometry x="280" y="270" width="160" height="34" as="geometry" />
        </mxCell>
        <mxCell id="G8l555mlQAZDzIwb1ybo-6" value="" style="line;strokeWidth=1;fillColor=none;align=left;verticalAlign=middle;spacingTop=-1;spacingLeft=3;spacingRight=3;rotatable=0;labelPosition=right;points=[];portConstraint=eastwest;strokeColor=inherit;" vertex="1" parent="G8l555mlQAZDzIwb1ybo-4">
          <mxGeometry y="26" width="160" height="8" as="geometry" />
        </mxCell>
        <mxCell id="G8l555mlQAZDzIwb1ybo-8" value="Command" style="swimlane;fontStyle=1;align=center;verticalAlign=top;childLayout=stackLayout;horizontal=1;startSize=26;horizontalStack=0;resizeParent=1;resizeParentMax=0;resizeLast=0;collapsible=1;marginBottom=0;" vertex="1" parent="1">
          <mxGeometry x="570" y="260" width="160" height="86" as="geometry" />
        </mxCell>
        <mxCell id="G8l555mlQAZDzIwb1ybo-9" value="+ field: type" style="text;strokeColor=none;fillColor=none;align=left;verticalAlign=top;spacingLeft=4;spacingRight=4;overflow=hidden;rotatable=0;points=[[0,0.5],[1,0.5]];portConstraint=eastwest;" vertex="1" parent="G8l555mlQAZDzIwb1ybo-8">
          <mxGeometry y="26" width="160" height="26" as="geometry" />
        </mxCell>
        <mxCell id="G8l555mlQAZDzIwb1ybo-10" value="" style="line;strokeWidth=1;fillColor=none;align=left;verticalAlign=middle;spacingTop=-1;spacingLeft=3;spacingRight=3;rotatable=0;labelPosition=right;points=[];portConstraint=eastwest;strokeColor=inherit;" vertex="1" parent="G8l555mlQAZDzIwb1ybo-8">
          <mxGeometry y="52" width="160" height="8" as="geometry" />
        </mxCell>
        <mxCell id="G8l555mlQAZDzIwb1ybo-11" value="+ execute(): void" style="text;strokeColor=none;fillColor=none;align=left;verticalAlign=top;spacingLeft=4;spacingRight=4;overflow=hidden;rotatable=0;points=[[0,0.5],[1,0.5]];portConstraint=eastwest;" vertex="1" parent="G8l555mlQAZDzIwb1ybo-8">
          <mxGeometry y="60" width="160" height="26" as="geometry" />
        </mxCell>
        <mxCell id="G8l555mlQAZDzIwb1ybo-12" value="Receiver" style="swimlane;fontStyle=1;align=center;verticalAlign=top;childLayout=stackLayout;horizontal=1;startSize=26;horizontalStack=0;resizeParent=1;resizeParentMax=0;resizeLast=0;collapsible=1;marginBottom=0;" vertex="1" parent="1">
          <mxGeometry x="280" y="440" width="160" height="60" as="geometry" />
        </mxCell>
        <mxCell id="G8l555mlQAZDzIwb1ybo-14" value="" style="line;strokeWidth=1;fillColor=none;align=left;verticalAlign=middle;spacingTop=-1;spacingLeft=3;spacingRight=3;rotatable=0;labelPosition=right;points=[];portConstraint=eastwest;strokeColor=inherit;" vertex="1" parent="G8l555mlQAZDzIwb1ybo-12">
          <mxGeometry y="26" width="160" height="8" as="geometry" />
        </mxCell>
        <mxCell id="G8l555mlQAZDzIwb1ybo-15" value="+ action():void" style="text;strokeColor=none;fillColor=none;align=left;verticalAlign=top;spacingLeft=4;spacingRight=4;overflow=hidden;rotatable=0;points=[[0,0.5],[1,0.5]];portConstraint=eastwest;" vertex="1" parent="G8l555mlQAZDzIwb1ybo-12">
          <mxGeometry y="34" width="160" height="26" as="geometry" />
        </mxCell>
        <mxCell id="G8l555mlQAZDzIwb1ybo-23" style="edgeStyle=orthogonalEdgeStyle;rounded=0;orthogonalLoop=1;jettySize=auto;html=1;endArrow=block;endFill=0;" edge="1" parent="1" source="G8l555mlQAZDzIwb1ybo-16">
          <mxGeometry relative="1" as="geometry">
            <mxPoint x="640" y="350" as="targetPoint" />
          </mxGeometry>
        </mxCell>
        <mxCell id="G8l555mlQAZDzIwb1ybo-16" value="ConcreteCommand" style="swimlane;fontStyle=1;align=center;verticalAlign=top;childLayout=stackLayout;horizontal=1;startSize=26;horizontalStack=0;resizeParent=1;resizeParentMax=0;resizeLast=0;collapsible=1;marginBottom=0;" vertex="1" parent="1">
          <mxGeometry x="560" y="440" width="160" height="86" as="geometry" />
        </mxCell>
        <mxCell id="G8l555mlQAZDzIwb1ybo-17" value="+ State: type" style="text;strokeColor=none;fillColor=none;align=left;verticalAlign=top;spacingLeft=4;spacingRight=4;overflow=hidden;rotatable=0;points=[[0,0.5],[1,0.5]];portConstraint=eastwest;" vertex="1" parent="G8l555mlQAZDzIwb1ybo-16">
          <mxGeometry y="26" width="160" height="26" as="geometry" />
        </mxCell>
        <mxCell id="G8l555mlQAZDzIwb1ybo-18" value="" style="line;strokeWidth=1;fillColor=none;align=left;verticalAlign=middle;spacingTop=-1;spacingLeft=3;spacingRight=3;rotatable=0;labelPosition=right;points=[];portConstraint=eastwest;strokeColor=inherit;" vertex="1" parent="G8l555mlQAZDzIwb1ybo-16">
          <mxGeometry y="52" width="160" height="8" as="geometry" />
        </mxCell>
        <mxCell id="G8l555mlQAZDzIwb1ybo-19" value="+execute(): void" style="text;strokeColor=none;fillColor=none;align=left;verticalAlign=top;spacingLeft=4;spacingRight=4;overflow=hidden;rotatable=0;points=[[0,0.5],[1,0.5]];portConstraint=eastwest;" vertex="1" parent="G8l555mlQAZDzIwb1ybo-16">
          <mxGeometry y="60" width="160" height="26" as="geometry" />
        </mxCell>
        <mxCell id="G8l555mlQAZDzIwb1ybo-24" style="edgeStyle=orthogonalEdgeStyle;rounded=0;orthogonalLoop=1;jettySize=auto;html=1;entryX=1.004;entryY=0.179;entryDx=0;entryDy=0;entryPerimeter=0;endArrow=openThin;endFill=0;" edge="1" parent="1" source="G8l555mlQAZDzIwb1ybo-17" target="G8l555mlQAZDzIwb1ybo-15">
          <mxGeometry relative="1" as="geometry" />
        </mxCell>
        <mxCell id="G8l555mlQAZDzIwb1ybo-25" value="receiver" style="text;html=1;strokeColor=none;fillColor=none;align=center;verticalAlign=middle;whiteSpace=wrap;rounded=0;" vertex="1" parent="1">
          <mxGeometry x="470" y="450" width="60" height="30" as="geometry" />
        </mxCell>
        <mxCell id="G8l555mlQAZDzIwb1ybo-28" value="receiver.action()" style="text;html=1;strokeColor=none;fillColor=none;align=center;verticalAlign=middle;whiteSpace=wrap;rounded=0;" vertex="1" parent="1">
          <mxGeometry x="700" y="570" width="110" height="30" as="geometry" />
        </mxCell>
        <mxCell id="G8l555mlQAZDzIwb1ybo-29" value="" style="endArrow=none;html=1;rounded=0;entryX=0.5;entryY=0;entryDx=0;entryDy=0;exitX=0.633;exitY=1.128;exitDx=0;exitDy=0;exitPerimeter=0;" edge="1" parent="1" source="G8l555mlQAZDzIwb1ybo-19" target="G8l555mlQAZDzIwb1ybo-28">
          <mxGeometry width="50" height="50" relative="1" as="geometry">
            <mxPoint x="480" y="430" as="sourcePoint" />
            <mxPoint x="530" y="380" as="targetPoint" />
            <Array as="points">
              <mxPoint x="730" y="560" />
            </Array>
          </mxGeometry>
        </mxCell>
      </root>
    </mxGraphModel>
  </diagram>
</mxfile>
